<svg width="150" height="150" viewBox="0 0 121 120" fill="none" xmlns="http://www.w3.org/2000/svg">
<g clip-path="url(#clip0_3_4)">
<path d="M23.934 74.078C29.9915 74.078 34.902 69.1674 34.902 63.11C34.902 57.0525 29.9915 52.142 23.934 52.142C17.8765 52.142 12.966 57.0525 12.966 63.11C12.966 69.1674 17.8765 74.078 23.934 74.078Z" stroke="white" stroke-width="3" stroke-miterlimit="10" stroke-linecap="round"/>
<path d="M25.035 105.1H5.61601C4.65709 105.097 3.73843 104.714 3.06084 104.036C2.38325 103.357 2.00185 102.438 2.00001 101.479V96.0179C1.99275 92.0229 3.07845 88.1019 5.13956 84.6796C7.20068 81.2573 10.1587 78.4639 13.6933 76.602C17.228 74.7401 21.2046 73.8805 25.1927 74.1163C29.1808 74.3521 33.0284 75.6744 36.319 77.9399" stroke="white" stroke-width="3" stroke-miterlimit="10" stroke-linecap="round"/>
<path d="M60.461 78.621C68.1411 78.621 74.367 72.395 74.367 64.715C74.367 57.0349 68.1411 50.809 60.461 50.809C52.7809 50.809 46.555 57.0349 46.555 64.715C46.555 72.395 52.7809 78.621 60.461 78.621Z" stroke="white" stroke-width="3" stroke-miterlimit="10" stroke-linecap="round"/>
<path d="M56.9 78.621H64.021C70.4528 78.621 76.6211 81.176 81.1691 85.7239C85.717 90.2719 88.272 96.4402 88.272 102.872V113.953C88.272 115.014 87.8506 116.031 87.1004 116.781C86.3503 117.532 85.3329 117.953 84.272 117.953H36.649C35.5882 117.953 34.5707 117.532 33.8206 116.781C33.0704 116.031 32.649 115.014 32.649 113.953V102.873C32.6489 99.6882 33.2761 96.5346 34.4947 93.5922C35.7134 90.6498 37.4997 87.9763 39.7516 85.7243C42.0035 83.4723 44.677 81.6859 47.6193 80.4671C50.5617 79.2483 53.7152 78.621 56.9 78.621Z" stroke="white" stroke-width="3" stroke-miterlimit="10" stroke-linecap="round"/>
<path d="M96.989 74.078C103.046 74.078 107.957 69.1674 107.957 63.11C107.957 57.0525 103.046 52.142 96.989 52.142C90.9315 52.142 86.021 57.0525 86.021 63.11C86.021 69.1674 90.9315 74.078 96.989 74.078Z" stroke="white" stroke-width="3" stroke-miterlimit="10" stroke-linecap="round"/>
<path d="M95.888 105.1H115.307C116.267 105.097 117.186 104.714 117.864 104.034C118.541 103.355 118.922 102.435 118.923 101.475V96.018C118.931 92.0223 117.845 88.1006 115.784 84.6776C113.723 81.2547 110.764 78.4609 107.229 76.5988C103.693 74.7368 99.7161 73.8774 95.7274 74.1138C91.7386 74.3502 87.8906 75.6734 84.6 77.94" stroke="white" stroke-width="3" stroke-miterlimit="10" stroke-linecap="round"/>
</g>
<defs>
<clipPath id="clip0_3_4">
<rect width="120.923" height="119.953" fill="white"/>
</clipPath>
</defs>
</svg>